<?xml version="1.0" standalone="no"?>
<!DOCTYPE svg PUBLIC "-//W3C//DTD SVG 20010904//EN"
 "http://www.w3.org/TR/2001/REC-SVG-20010904/DTD/svg10.dtd">
<svg version="1.0" xmlns="http://www.w3.org/2000/svg"
 width="27.678928pt" height="30.000000pt" viewBox="0 0 27.678928 30.000000"
 preserveAspectRatio="xMidYMid meet">
<metadata>
Created by potrace 1.16, written by Peter Selinger 2001-2019
</metadata>
<g transform="translate(0.000000,30.000000) scale(0.000600,-0.000600)"
fill="#000000" stroke="none">
<path d="M28405 46558 c5 -3074 35 -30539 35 -32080 l0 -608 596 0 597 0 -7
4407 c-3 2425 -11 9279 -16 15233 -6 5954 -13 12104 -16 13668 l-6 2842 -594
0 -594 0 5 -3462z"/>
<path d="M24925 48340 c-451 -29 -917 -98 -1320 -195 -281 -68 -7925 -2085
-8089 -2135 -681 -207 -1366 -532 -1965 -932 -1384 -926 -2435 -2297 -2972
-3878 -216 -634 -336 -1227 -391 -1925 -16 -207 -16 -813 0 -1025 31 -403 117
-990 146 -990 6 0 493 128 1081 284 589 156 1071 284 1072 283 4 -5 573 -2159
573 -2172 0 -8 -2 -15 -5 -15 -4 0 -2105 -556 -2137 -566 -11 -3 -18 0 -18 9
0 24 -569 2160 -577 2167 -8 7 -4336 -1139 -4348 -1151 -3 -3 125 -496 284
-1095 212 -800 292 -1088 302 -1087 30 6 4310 1143 4318 1147 8 6 15 -17 361
-1334 144 -545 214 -826 206 -829 -6 -3 -488 -131 -1070 -286 -583 -155 -1062
-287 -1064 -294 -3 -9 564 -2169 572 -2178 1 -1 485 126 1075 283 591 156
1075 283 1076 282 12 -15 1143 -4343 1135 -4348 -16 -10 -2150 -574 -2154
-569 -2 2 -132 489 -289 1083 -158 593 -288 1080 -290 1082 -2 3 -981 -255
-2176 -572 -1195 -317 -2174 -574 -2175 -573 -2 2 -132 488 -288 1079 -249
938 -283 1076 -269 1082 9 4 495 134 1081 289 586 155 1068 284 1071 288 5 4
-426 1647 -560 2139 -7 23 -17 42 -24 42 -12 0 -2169 -570 -2175 -575 -1 -1
126 -487 284 -1079 157 -593 283 -1083 281 -1090 -5 -13 -2104 -572 -2114
-563 -3 3 -129 471 -279 1038 -151 568 -275 1033 -277 1034 -2 2 -2181 -575
-2185 -579 -3 -4 574 -2175 580 -2181 3 -4 483 121 1067 276 584 155 1064 279
1066 277 3 -3 126 -463 275 -1024 148 -560 273 -1026 277 -1035 7 -15 142 19
1093 271 597 159 1085 288 1086 287 2 -7 567 -2144 568 -2151 0 -5 -483 -137
-1074 -294 -591 -157 -1076 -286 -1077 -286 -4 -3 575 -2177 581 -2183 3 -3
976 252 2163 567 1187 315 2162 573 2166 574 5 0 138 -486 297 -1082 158 -595
289 -1085 292 -1087 3 -3 495 125 1094 284 965 256 1089 291 1087 308 -1 10
-130 500 -287 1088 -171 645 -280 1072 -273 1074 26 10 2142 569 2144 567 2
-1 196 -738 433 -1637 237 -899 455 -1719 486 -1824 425 -1445 1301 -2751
2493 -3714 589 -476 1299 -889 2010 -1168 1117 -438 2336 -607 3516 -487 319
32 643 86 938 154 95 22 1133 294 2307 603 l2135 563 -4 3079 c-2 1694 -4
3081 -5 3083 -2 1 -866 -226 -1922 -504 -1055 -278 -1977 -519 -2049 -534
-1026 -226 -2131 9 -2994 638 -359 262 -687 604 -924 964 -209 319 -338 589
-451 948 -64 203 -3162 11973 -3197 12145 -47 235 -61 371 -66 655 -7 372 23
647 108 984 272 1076 1017 1993 2011 2470 172 83 289 130 459 187 144 47 4031
1072 4189 1104 270 55 471 75 760 75 592 0 1152 -135 1683 -404 942 -478 1636
-1316 1921 -2319 24 -84 135 -502 247 -929 112 -428 206 -778 209 -778 8 0 -1
10324 -8 10331 -13 12 -315 117 -483 168 -541 163 -1061 262 -1649 311 -169
15 -811 21 -985 10z m-9669 -12137 c4 -14 134 -504 289 -1087 155 -584 279
-1064 276 -1068 -8 -9 -2170 -582 -2176 -577 -8 9 -576 2161 -572 2172 2 7
2121 580 2169 586 4 1 11 -11 14 -26z m2007 -7585 c158 -596 287 -1088 287
-1094 0 -7 -33 -21 -72 -31 -723 -195 -2100 -555 -2105 -550 -4 4 -136 494
-294 1090 -193 729 -283 1084 -275 1087 9 4 2150 576 2166 579 3 1 135 -486
293 -1081z m-1599 -2777 c158 -596 286 -1085 284 -1086 -5 -6 -2155 -575
-2170 -575 -9 0 -102 336 -301 1086 -158 598 -286 1088 -284 1091 10 9 2173
580 2178 574 3 -3 135 -494 293 -1090z m-4372 -1153 c158 -595 286 -1083 285
-1084 -4 -4 -2120 -564 -2131 -564 -9 0 -587 2149 -580 2158 1 3 2107 565
2134 571 3 1 134 -486 292 -1081z m7703 -2626 c158 -596 286 -1085 284 -1087
-13 -12 -2172 -576 -2179 -569 -10 11 -581 2166 -575 2172 10 10 2171 579
2177 573 3 -3 135 -493 293 -1089z"/>
<path d="M30060 47664 c0 -110 -23 -7169 -49 -15689 -27 -8519 -49 -15491 -47
-15492 1 -1 611 -4 1356 -7 745 -3 1345 -3 1333 0 -22 5 -23 10 -23 94 0 116
-697 30827 -705 31078 l-7 192 120 0 119 0 6 -122 c4 -68 165 -7126 359
-15685 l353 -15563 68 0 69 0 -7 208 c-8 258 -705 30982 -705 31086 l0 75 48
4 c26 2 -464 4 -1089 5 -625 1 -1151 5 -1168 8 l-31 7 0 -199z"/>
<path d="M3218 32981 c-593 -157 -1078 -290 -1078 -296 0 -5 129 -497 287
-1092 216 -815 290 -1083 301 -1083 18 0 2165 569 2171 576 2 2 -126 495 -284
1094 -228 857 -293 1090 -305 1089 -8 -1 -500 -130 -1092 -288z"/>
<path d="M37702 8031 l-2 -763 -230 3 -230 4 0 -897 0 -898 1065 0 1065 0 0
225 0 225 -830 0 -830 0 -3 1433 c-1 787 -3 1088 -5 668z"/>
<path d="M19322 8011 l-2 -334 -230 5 -230 5 0 -1104 0 -1103 1065 0 1065 0 0
225 0 225 -830 0 -830 0 0 485 0 485 705 0 705 0 0 225 0 225 -705 0 -705 0
-3 498 c-2 396 -3 429 -5 163z"/>
<path d="M1849 8103 l-23 -36 -255 7 c-140 3 -256 8 -259 10 -2 3 2 15 9 28
50 97 -86 -132 -662 -1109 l-659 -1118 0 -202 0 -203 1035 0 1035 0 0 225 0
225 -740 2 -740 3 621 1060 c341 583 631 1079 645 1103 30 51 25 56 -7 5z"/>
<path d="M2672 6803 l-2 -1323 1065 0 1065 0 0 225 0 225 -830 0 -830 0 0 485
0 485 705 0 705 0 0 225 0 225 -705 0 -705 0 -1 363 c-1 199 -3 354 -6 345 -4
-16 -18 -18 -107 -18 -57 0 -157 3 -224 7 l-121 6 -4 36 c-2 20 -4 -559 -5
-1286z"/>
<path d="M5451 6753 l-1 -1273 235 0 235 0 0 700 0 700 342 -2 342 -3 352
-695 353 -695 280 -3 c155 -1 281 0 281 3 0 3 -171 327 -380 720 -209 393
-380 717 -380 719 0 3 29 14 64 26 182 60 354 218 453 414 69 137 94 248 99
441 2 88 1 154 -2 148 -4 -10 -50 -13 -178 -13 -233 0 -324 8 -328 29 -2 9 -2
-36 0 -99 5 -141 -8 -214 -52 -305 -57 -116 -157 -197 -277 -224 -26 -6 -231
-11 -506 -11 l-463 0 -1 343 c-1 188 -3 334 -6 325 -4 -16 -21 -18 -176 -18
-210 0 -274 7 -280 29 -3 9 -5 -557 -6 -1256z"/>
<path d="M8338 7840 c-10 -64 -13 -245 -13 -720 0 -618 1 -638 22 -745 55
-268 129 -419 289 -585 221 -229 499 -340 852 -340 341 0 621 109 837 325 172
171 268 375 309 658 21 135 23 1235 4 1381 -7 50 -14 83 -16 73 -3 -16 -19
-17 -240 -11 -153 5 -240 11 -245 18 -6 7 -7 4 -3 -6 3 -10 12 -56 21 -102 14
-73 16 -170 12 -693 -4 -680 -1 -652 -78 -809 -70 -143 -189 -264 -314 -319
-118 -53 -309 -70 -450 -40 -122 26 -208 75 -305 173 -67 68 -95 105 -128 172
-79 161 -77 143 -77 865 0 566 2 648 17 705 9 36 16 66 15 67 -2 1 -113 5
-249 10 l-247 8 -13 -85z"/>
<path d="M12584 7805 c-5 -38 -9 -349 -9 -690 0 -675 1 -684 60 -889 52 -181
122 -301 253 -438 217 -226 498 -338 849 -338 341 0 624 109 837 323 176 177
276 393 315 680 17 119 15 1316 -1 1322 -7 2 -116 5 -243 7 l-230 3 3 -615 c2
-535 1 -625 -13 -695 -45 -222 -184 -414 -360 -500 -180 -87 -430 -87 -614 0
-57 27 -93 55 -156 118 -126 127 -184 249 -205 432 -22 197 -11 1218 15 1319
5 20 4 20 -6 -1 -12 -22 -16 -23 -178 -23 -91 0 -196 3 -233 6 -58 6 -67 10
-71 28 -2 12 -7 -10 -13 -49z"/>
<path d="M16060 7785 l0 -35 -67 0 c-38 0 -139 3 -225 7 -132 5 -158 9 -161
22 -3 9 -5 -505 -6 -1141 l-1 -1158 235 0 235 0 0 1170 c0 644 -2 1170 -5
1170 -3 0 -5 -16 -5 -35z"/>
<path d="M16195 7695 c41 -66 375 -590 743 -1165 l667 -1045 223 -3 222 -2 -2
1152 c-1 634 -3 1136 -5 1116 l-4 -38 -214 0 c-180 0 -216 2 -229 16 -14 14
-16 -50 -18 -686 l-3 -700 -449 710 c-246 390 -450 710 -453 710 -2 0 -1 -5 3
-11 5 -9 -59 -10 -246 -7 l-253 4 -29 35 c-16 19 5 -20 47 -86z"/>
<path d="M23362 6638 l-2 -1158 235 0 235 0 0 1050 0 1050 -184 0 c-101 0
-204 3 -229 6 l-46 7 -4 101 c-1 55 -4 -420 -5 -1056z"/>
<path d="M27992 6588 l-2 -1108 235 0 235 0 0 478 1 477 267 323 c209 254 269
320 277 309 5 -8 221 -368 479 -801 l469 -786 289 0 c248 0 289 2 285 14 -8
20 -1167 1969 -1179 1981 -6 6 -7 4 -3 -6 5 -14 -21 -15 -262 -12 -147 3 -274
6 -282 9 -11 3 -10 9 3 29 42 64 -6 8 -165 -196 l-174 -221 -3 195 -2 194 -83
6 c-45 4 -148 7 -229 7 l-147 0 -4 108 c-1 59 -4 -391 -5 -1000z"/>
<path d="M25212 6553 l-2 -1073 1065 0 1065 0 0 225 0 225 -830 0 -830 0 0
485 0 485 705 0 705 0 0 225 0 225 -705 0 -705 0 -1 93 c-1 50 -1 99 0 107 0
10 -1 11 -5 3 -4 -10 -60 -13 -229 -13 l-224 0 -4 43 c-2 23 -4 -441 -5 -1030z"/>
<path d="M32305 7421 l17 -34 -251 5 c-249 5 -251 6 -271 29 -27 31 -15 12
659 -1043 l573 -898 219 0 219 0 0 938 0 939 -142 6 c-79 4 -182 7 -230 7 -74
0 -87 3 -91 18 -3 9 -5 -223 -6 -517 l-1 -534 -346 549 c-329 522 -388 613
-349 535z"/>
<path d="M31020 6462 l0 -982 235 0 235 0 -2 963 -3 962 -220 3 c-193 2 -222
4 -232 19 -11 14 -13 -177 -13 -965z"/>
<path d="M34692 7375 l-2 -40 -241 3 -241 4 5 -448 c4 -500 8 -535 81 -739
126 -353 415 -596 806 -681 193 -42 492 -26 683 37 299 98 559 338 657 607 88
240 101 353 98 865 -1 216 -3 373 -5 350 l-4 -41 -234 5 -233 6 -5 -399 c-4
-451 -6 -465 -82 -619 -45 -93 -101 -167 -178 -233 -64 -56 -102 -77 -192
-108 -74 -26 -91 -28 -230 -28 -136 0 -158 3 -230 27 -100 33 -161 72 -246
158 -46 47 -80 93 -112 155 -81 158 -80 148 -87 684 -3 261 -7 457 -8 435z"/>
<path d="M42652 6912 c-1 -204 3 -405 9 -459 38 -342 202 -633 454 -803 92
-62 235 -131 320 -154 221 -59 513 -61 731 -6 409 105 694 419 795 878 19 86
22 134 25 432 1 184 0 327 -2 317 -5 -16 -14 -18 -82 -13 -43 3 -225 8 -407
11 -181 3 -403 8 -492 11 l-162 7 -4 36 c-2 20 -4 -51 -5 -156 l-2 -193 336 0
337 0 -6 -162 c-6 -189 -25 -278 -86 -403 -74 -151 -199 -260 -355 -312 -73
-24 -95 -27 -231 -27 -138 0 -156 2 -227 27 -111 39 -210 101 -287 182 -78 83
-114 146 -143 252 -19 71 -22 109 -26 421 -2 188 -5 343 -5 344 -1 1 -108 5
-237 8 l-235 5 -6 60 c-3 33 -6 -103 -7 -303z"/>
<path d="M39741 6910 c0 -190 4 -384 9 -430 26 -213 94 -412 187 -549 161
-237 397 -393 693 -457 121 -26 429 -26 550 0 415 90 714 361 829 753 51 173
54 216 57 628 1 215 0 373 -3 353 l-4 -38 -93 0 c-51 0 -154 3 -229 7 -115 5
-137 9 -139 22 -1 9 -5 -146 -8 -344 -7 -405 -12 -434 -91 -585 -132 -254
-336 -369 -629 -357 -266 11 -453 134 -566 372 -65 136 -67 152 -74 575 -3
212 -7 376 -8 366 -2 -18 -10 -19 -174 -13 -95 4 -201 7 -235 7 -50 0 -62 3
-66 18 -3 9 -5 -138 -6 -328z"/>
<path d="M45682 6368 l-2 -888 235 0 235 0 -1 818 c-1 449 -3 809 -6 800 -4
-16 -19 -18 -137 -18 -73 0 -174 3 -224 6 l-91 7 -4 81 c-1 45 -4 -318 -5
-806z"/>
</g>
</svg>
